<svg id="Capa_1" enable-background="new 0 0 512 512" height="512" viewBox="0 0 512 512" width="512" xmlns="http://www.w3.org/2000/svg"><path d="m512 199.723-228.866 189.93c-15.734 13.057-38.535 13.057-54.269 0l-228.865-189.93 228.866-189.93c15.734-13.057 38.535-13.057 54.269 0z" fill="#ff9e21"/><path d="m283.134 9.793c-7.866-6.529-17.5-9.793-27.134-9.793v399.445c9.634 0 19.268-3.264 27.134-9.793l228.866-189.929z" fill="#ff8f00"/><path d="m466 248.746v-143.726c0-11.046-8.954-20-20-20h-380c-11.046 0-20 8.954-20 20v143.726l184.397 153.618c14.832 12.357 36.373 12.357 51.206 0z" fill="#ecf9fb"/><path d="m446 85.02h-190v326.612c9.093 0 18.187-3.089 25.603-9.267l184.397-153.619v-143.726c0-11.046-8.954-20-20-20z" fill="#b1d5f1"/><path d="m512 199.723-228.866 189.93c-15.734 13.057-38.535 13.057-54.269 0l-228.865-189.93v269.787c0 23.467 19.023 42.49 42.49 42.49h427.02c23.466 0 42.49-19.023 42.49-42.49z" fill="#ffc278"/><path d="m283.134 389.653c-7.867 6.528-17.501 9.793-27.134 9.793v112.554h213.51c23.466 0 42.49-19.023 42.49-42.49v-269.787z" fill="#ffb554"/><path d="m283.134 389.653c-15.734 13.057-38.535 13.057-54.269 0l-24.065-19.972-191.168 131.006c7.578 7.018 17.714 11.313 28.858 11.313h427.02c11.143 0 21.279-4.295 28.857-11.313l-191.167-131.006z" fill="#ffe0ba"/><path d="m498.368 500.687-191.168-131.006-24.066 19.971c-7.867 6.528-17.501 9.793-27.134 9.793v112.555h213.51c11.144 0 21.28-4.295 28.858-11.313z" fill="#ffd396"/><path d="m288.5 180h-142c-8.284 0-15-6.716-15-15s6.716-15 15-15h142c8.284 0 15 6.716 15 15s-6.716 15-15 15z" fill="#5e6b75"/><path d="m365.5 240h-219c-8.284 0-15-6.716-15-15s6.716-15 15-15h219c8.284 0 15 6.716 15 15s-6.716 15-15 15z" fill="#5e6b75"/><g fill="#4f5961"><path d="m303.5 165c0-8.284-6.716-15-15-15h-32.5v30h32.5c8.284 0 15-6.716 15-15z"/><path d="m365.5 210h-109.5v30h109.5c8.284 0 15-6.716 15-15s-6.716-15-15-15z"/></g></svg>